Coordinates
version=1
nRows=7
nColumns=42
inDegrees=yes

Units are S.I. units (second, meters, Newtons, ...)
If the header above contains a line with 'inDegrees', this indicates whether rotational values are in degrees (yes) or radians (no).

endheader
time	pelvis_tilt	pelvis_list	pelvis_rotation	pelvis_tx	pelvis_ty	pelvis_tz	hip_flexion_r	hip_adduction_r	hip_rotation_r	knee_angle_r	knee_adduction_r	knee_angle_r_beta	ankle_angle_r	subtalar_angle_r	mtp_angle_r	hip_flexion_l	hip_adduction_l	hip_rotation_l	knee_angle_l	knee_adduction_l	knee_angle_l_beta	ankle_angle_l	subtalar_angle_l	mtp_angle_l	lumbar_extension	lumbar_bending	lumbar_rotation	arm_flex_r	arm_add_r	arm_rot_r	elbow_flex_r	pro_sup_r	wrist_flex_r	wrist_dev_r	arm_flex_l	arm_add_l	arm_rot_l	elbow_flex_l	pro_sup_l	wrist_flex_l	wrist_dev_l
      1.44000000	      5.51666987	     -2.38858285	      7.70061401	     -1.01201100	      0.84938758	      0.21666991	     25.78748571	      3.57752265	    -25.41100202	     27.35645776	    -10.89722674	      0.47746026	      4.10569653	      9.06926699	     -7.50575078	    -18.97282796	     -0.26564784	      0.37567303	     28.31243769	     -5.70997594	      0.49414526	     23.28213833	      8.53462085	     -7.50575078	    -22.11497855	      5.64191722	     -0.39586502	     -6.73103007	    -16.58435254	     11.66225092	     34.02433521	     90.00000001	      0.00000000	      0.00000000	     25.63726447	    -21.12798723	     15.79449211	     55.77505805	     90.00000001	      0.00000000	      0.00000000
      1.45000000	      5.40990990	     -2.83343252	      7.32732719	     -0.99812924	      0.85025827	      0.21886293	     25.48477869	      4.64116448	    -23.36259271	     28.50743573	    -10.49671508	      0.49754861	      3.67406518	      5.11316846	     -7.50536334	    -17.82893953	     -0.98214557	     -0.31319126	     31.62118546	     -5.67375270	      0.55189380	     21.15886625	      8.25782873	     -7.50536334	    -21.95689516	      6.11390144	     -0.04337863	     -6.16164148	    -16.75233101	     11.79125304	     33.78846298	     90.00000001	      0.00000000	      0.00000000	     24.49395361	    -20.86305484	     15.16005123	     55.48044966	     90.00000001	      0.00000000	      0.00000000
      1.46000000	      5.64766996	     -3.34319543	      7.03403595	     -0.98371453	      0.85200286	      0.22099542	     24.50860832	      5.68991961	    -22.74855913	     29.03953381	    -10.46511130	      0.50683548	      4.30334961	      4.44569022	     -7.50525525	    -16.97194560	     -1.87671407	     -1.06174920	     34.95884168	     -5.67347638	      0.61014689	     18.44588525	      7.61479609	     -7.50525525	    -22.09152705	      6.69026859	      0.31764289	     -5.61177488	    -16.95318789	     11.80197944	     33.69268729	     90.00000001	      0.00000000	      0.00000000	     23.34844363	    -20.72252733	     15.02981129	     55.11267763	     90.00000001	      0.00000000	      0.00000000
      1.47000000	      5.81254292	     -3.80087869	      6.70260315	     -0.96961926	      0.85398139	      0.22319466	     23.43525732	      6.65054733	    -22.07264728	     29.30005733	    -10.28304379	      0.51138247	      5.10979588	      3.87637607	     -7.50517897	    -15.78076952	     -2.72469674	     -1.80999052	     38.54595927	     -5.68129019	      0.67275390	     15.73312949	      6.87899793	     -7.50517897	    -22.18735419	      7.17881041	      0.69056406	     -4.98472377	    -17.14722074	     11.84379821	     33.64682964	     90.00000001	      0.00000000	      0.00000000	     22.21226530	    -20.54743549	     14.96245288	     54.60008012	     90.00000001	      0.00000000	      0.00000000
      1.48000000	      5.78919275	     -4.24083191	      6.23201549	     -0.95583055	      0.85581812	      0.22563115	     22.46722698	      7.64552552	    -21.47081764	     29.29106866	    -10.18595871	      0.51122559	      5.74406683	      3.34909973	     -7.50508967	    -14.09797628	     -3.51997898	     -2.90422839	     42.46900737	     -5.89893540	      0.74122401	     13.28644074	      5.55945117	     -7.50508967	    -22.10425505	      7.56322651	      1.18628871	     -4.30624858	    -17.38243266	     11.94571037	     33.59832670	     90.00000001	      0.00000000	      0.00000000	     21.06196655	    -20.32496636	     14.97008726	     53.94602866	     90.00000001	      0.00000000	      0.00000000
      1.49000000	      5.56854394	     -4.52667112	      5.64910431	     -0.94273351	      0.85757989	      0.22821449	     21.69219604	      8.41696629	    -20.83751719	     29.23495953	    -10.00900484	      0.51024630	      6.16477069	      2.46366312	     -7.50480373	    -12.00990174	     -4.07813695	     -3.68293431	     46.53450770	     -5.98791366	      0.81218038	     11.11397246	      3.01085944	     -7.50480373	    -21.90157758	      7.71795435	      1.73483237	     -3.53274779	    -17.64878905	     12.24837329	     33.61204413	     90.00000001	      0.00000000	      0.00000000	     20.00279489	    -20.09315079	     15.01571171	     53.13162898	     90.00000001	      0.00000000	      0.00000000
      1.50000000	      5.69019920	     -4.86776335	      5.19732763	     -0.92926381	      0.86000214	      0.23070690	     20.17849704	      9.27187406	    -20.66820488	     28.50839999	     -9.95721461	      0.49756544	      7.06790883	      3.07864346	     -7.50471547	    -10.29050875	     -4.86267544	     -4.93497878	     50.25553725	     -6.42409020	      0.87712459	      9.43610675	      1.23977746	     -7.50471547	    -22.00545607	      7.95025124	      2.29353009	     -2.84146237	    -17.87150153	     12.28603168	     33.77932198	     90.00000001	      0.00000000	      0.00000000	     19.02385334	    -19.92165208	     15.43966353	     52.23740491	     90.00000001	      0.00000000	      0.00000000
